Coordinates
version=1
nRows=12
nColumns=42
inDegrees=yes

Units are S.I. units (second, meters, Newtons, ...)
If the header above contains a line with 'inDegrees', this indicates whether rotational values are in degrees (yes) or radians (no).

endheader
time	pelvis_tilt	pelvis_list	pelvis_rotation	pelvis_tx	pelvis_ty	pelvis_tz	hip_flexion_r	hip_adduction_r	hip_rotation_r	knee_angle_r	knee_adduction_r	knee_angle_r_beta	ankle_angle_r	subtalar_angle_r	mtp_angle_r	hip_flexion_l	hip_adduction_l	hip_rotation_l	knee_angle_l	knee_adduction_l	knee_angle_l_beta	ankle_angle_l	subtalar_angle_l	mtp_angle_l	lumbar_extension	lumbar_bending	lumbar_rotation	arm_flex_r	arm_add_r	arm_rot_r	elbow_flex_r	pro_sup_r	wrist_flex_r	wrist_dev_r	arm_flex_l	arm_add_l	arm_rot_l	elbow_flex_l	pro_sup_l	wrist_flex_l	wrist_dev_l
      1.27000000	      1.35123309	      6.42416371	      6.08735892	     -1.04251654	      0.98803496	      0.31949983	     14.22085951	     -7.06952854	    -18.51532209	     11.19058601	      0.10180194	      0.19531257	     -4.50707815	      3.13177385	     -7.85840165	    -16.84735118	      3.47355376	      0.22792377	     11.16008943	      0.74561076	      0.19478031	      7.71944380	      9.24513870	     -7.85840165	    -17.03877483	     -8.44012004	     -8.82551943	    -14.01621699	    -10.97511841	     18.98365121	     37.06190898	     90.00000001	      0.00000000	      0.00000000	     14.36399811	    -20.48369837	     11.87018126	     48.01196361	     90.00000001	      0.00000000	      0.00000000
      1.28000000	      1.34919340	      6.47448895	      6.16198354	     -1.03509037	      0.98976787	      0.32128266	     13.44799557	     -6.94716318	    -18.69632936	     10.67614864	      0.17973046	      0.18633395	     -4.17232000	      3.46612752	     -7.85403591	    -16.25482351	      3.08860430	      0.17672690	     13.00149517	      1.19854454	      0.22691890	      6.65979051	      8.50967245	     -7.85403591	    -17.14278067	     -8.50370318	     -8.87339717	    -13.43936637	    -10.83934974	     18.86495370	     36.88606352	     90.00000001	      0.00000000	      0.00000000	     13.87312842	    -20.59770538	     12.23219346	     47.34042783	     90.00000001	      0.00000000	      0.00000000
      1.29000000	      1.40075072	      6.41375128	      6.23890042	     -1.02761839	      0.99151561	      0.32321774	     12.57141581	     -6.64316056	    -19.03346885	     10.01964489	      0.17615209	      0.17487579	     -4.02972345	      4.05250303	     -7.84584151	    -15.60242095	      2.53002043	      0.13768168	     15.04304671	      1.71846043	      0.26255069	      5.71762222	      7.50802174	     -7.84584151	    -17.26648821	     -8.45957632	     -8.86142058	    -12.84521895	    -10.69288024	     18.67101264	     36.68629377	     90.00000001	      0.00000000	      0.00000000	     13.36309082	    -20.76193927	     12.74893592	     46.72305355	     90.00000001	      0.00000000	      0.00000000
      1.30000000	      1.47332468	      6.53378401	      6.33689237	     -1.02030298	      0.99326121	      0.32494899	     11.67499221	     -6.61153296	    -19.28024763	      9.46084070	      0.29958965	      0.16512282	     -3.65907837	      4.49871686	     -7.83876529	    -14.88605252	      2.15662705	      0.21521783	     17.21136015	      2.25461073	      0.30039490	      4.50498862	      6.80730189	     -7.83876529	    -17.44298302	     -8.59374223	     -8.92719640	    -12.24442909	    -10.58944742	     18.58998814	     36.65024774	     90.00000001	      0.00000000	      0.00000000	     12.81649418	    -20.92349383	     13.03583088	     46.19396831	     90.00000001	      0.00000000	      0.00000000
      1.31000000	      1.56225223	      6.68936414	      6.40449769	     -1.01306786	      0.99494302	      0.32671318	     10.77882285	     -6.61484771	    -19.51263580	      8.92303959	      0.43009351	      0.15573642	     -3.32380172	      4.92664675	     -7.83239492	    -14.09800688	      1.79565683	      0.34619819	     19.52228725	      2.84889835	      0.34072819	      3.32513808	      6.15980986	     -7.83239492	    -17.64373842	     -8.77075196	     -8.94411001	    -11.62439761	    -10.51954199	     18.57344890	     36.65680224	     90.00000001	      0.00000000	      0.00000000	     12.24163627	    -21.08841840	     13.22980550	     45.74388197	     90.00000001	      0.00000000	      0.00000000
      1.32000000	      1.68361459	      6.86003953	      6.47875008	     -1.00592129	      0.99657767	      0.32837781	      9.83222451	     -6.66552536	    -19.71523036	      8.37533111	      0.63815745	      0.14617710	     -2.95156242	      5.32877237	     -7.82713721	    -13.22144849	      1.45866846	      0.49672446	     22.00921466	      3.40604040	      0.38413326	      2.10549693	      5.53090573	     -7.82713721	    -17.86923884	     -8.95113915	     -8.97708236	    -10.97359050	    -10.48642863	     18.58795356	     36.70130092	     90.00000001	      0.00000000	      0.00000000	     11.62638757	    -21.26895189	     13.35042159	     45.33251869	     90.00000001	      0.00000000	      0.00000000
      1.33000000	      1.78717274	      6.96502891	      6.53540382	     -0.99889872	      0.99802436	      0.33018645	      8.93462599	     -6.59228139	    -20.00438887	      7.80271501	      0.73999453	      0.13618307	     -2.72510804	      5.79316262	     -7.82055758	    -12.16717908	      1.00659428	      0.61606717	     24.72996023	      4.04204345	      0.43161923	      1.03141199	      4.80194485	     -7.82055758	    -18.05331318	     -9.09112224	     -8.93403672	    -10.29044733	    -10.47390262	     18.70479947	     36.74419109	     90.00000001	      0.00000000	      0.00000000	     10.99770555	    -21.44951684	     13.38529610	     45.02434257	     90.00000001	      0.00000000	      0.00000000
      1.34000000	      1.91607255	      7.10579922	      6.56209862	     -0.99193983	      0.99935329	      0.33195965	      8.03547752	     -6.58394218	    -20.23706349	      7.29233231	      0.89728992	      0.12727521	     -2.42057196	      6.19778881	     -7.81435917	    -11.07502837	      0.61250603	      0.79445492	     27.49161898	      4.65385861	      0.47981927	      0.00239388	      4.18012859	     -7.81435917	    -18.25667639	     -9.26924002	     -8.84165001	     -9.60915773	    -10.48050625	     18.86098128	     36.83131326	     90.00000001	      0.00000000	      0.00000000	     10.34790296	    -21.61976361	     13.31166942	     44.76298282	     90.00000001	      0.00000000	      0.00000000
      1.35000000	      1.97409491	      7.13520627	      6.54177445	     -0.98530761	      1.00040893	      0.33380458	      7.32359639	     -6.44050829	    -20.43459494	      6.88465306	      0.98229357	      0.12015986	     -2.24763909	      6.66757437	     -7.80484322	     -9.75110529	      0.06841587	      0.97243000	     30.42884309	      5.37466546	      0.53108350	     -0.81940025	      3.51575395	     -7.80484322	    -18.37648136	     -9.34827031	     -8.69974308	     -8.82212104	    -10.58049180	     19.19731105	     36.94121310	     90.00000001	      0.00000000	      0.00000000	      9.64992961	    -21.76109540	     13.03282096	     44.57586748	     90.00000001	      0.00000000	      0.00000000
      1.36000000	      2.16053791	      7.31966840	      6.53435053	     -0.97857887	      1.00155348	      0.33540975	      6.38922054	     -6.51557602	    -20.58299463	      6.42566358	      1.22187766	      0.11214899	     -1.81054718	      6.98055106	     -7.79932976	     -8.58898076	     -0.22547954	      1.19676738	     33.20661192	      5.88331512	      0.57956471	     -1.67468087	      2.95349613	     -7.79932976	    -18.63839161	     -9.55979438	     -8.54971926	     -8.08567637	    -10.63840289	     19.36279730	     37.06421940	     90.00000001	      0.00000000	      0.00000000	      8.99485260	    -21.92279842	     12.81774214	     44.38738301	     90.00000001	      0.00000000	      0.00000000
      1.37000000	      2.14413398	      7.26280842	      6.44762060	     -0.97222129	      1.00214184	      0.33738295	      5.87528794	     -6.24830391	    -20.72608355	      6.13293656	      1.21595768	      0.10703994	     -1.67379619	      7.34572622	     -7.78856107	     -7.03220555	     -0.85663580	      1.43562375	     36.15284140	      6.63462870	      0.63098612	     -2.18660225	      2.19216747	     -7.78856107	    -18.64627315	     -9.59804270	     -8.27411003	     -7.25621148	    -10.80567331	     19.91057825	     37.17835599	     90.00000001	      0.00000000	      0.00000000	      8.24987334	    -22.01222282	     12.19336131	     44.30262163	     90.00000001	      0.00000000	      0.00000000
      1.38000000	      2.34055283	      7.40041957	      6.36923334	     -0.96578797	      1.00303653	      0.33897376	      5.01249309	     -6.26831313	    -20.80450288	      5.74368164	      1.42606521	      0.10024616	     -1.24711459	      7.61973120	     -7.78302159	     -5.78299949	     -1.15948332	      1.66674492	     38.77680752	      7.08662481	      0.67678296	     -2.69558175	      1.58665043	     -7.78302159	    -18.90567577	     -9.77813846	     -8.01514361	     -6.42530209	    -10.91913162	     20.11935656	     37.30213144	     90.00000001	      0.00000000	      0.00000000	      7.57775092	    -22.14693495	     11.84482068	     44.19322784	     90.00000001	      0.00000000	      0.00000000
